<?xml version="1.0" encoding="UTF-8"?>
<svg id="logos" xmlns="http://www.w3.org/2000/svg" viewBox="0 0 375.99 53">
  <defs>
    <style>
      .cls-1 {
        fill: #ffc971;
      }

      .cls-2 {
        fill: #fff;
      }
    </style>
  </defs>
  <path class="cls-1" d="M83.15,22.31c.18-.01.27-.03.27-.03-16.07-2.97-29.98-12.29-29.98-12.29,4.57,13.79,26.93,12.53,29.71,12.32ZM88.58,24.82s-2.27-1.5-8.57-1.21c-10.75.16-34.91-1.91-31.68,1.37,1.82,1.84,10.2,1.64,18.36.94-7.02,1.61-16.15,4.32-27.96,8.8,0,0-17.1,5.7-28.74,8.11,0,0,17.54,2.2,47.16-9.15,26.12-10.01,31.42-8.85,31.42-8.85M79.98,27.69s-22.88,6.89-26.58,9.33c0,0,30.08-10.2,39.49-5.58,0,0,1.5-7.47-12.91-3.76"/>
  <path class="cls-2" d="M208.38,36.58c3.48-8.55,6.25-15.88,8.33-21.97.22-.63.34-1.14.36-1.51,0-.37-.17-.68-.51-.91-.52-.1-1.02-.15-1.48-.15-.28.03-.42-.06-.42-.24-.02-.2.26-.3.86-.3,1.81.03,3.08.07,3.81.12.19,0,.59-.03,1.22-.08.62-.03,1.23-.04,1.83-.04.44,0,.67.09.67.26,0,.18-.16.28-.48.28-.13,0-.38.01-.74.04-.36.05-.73.2-1.12.43-.1.05-.21.16-.35.33-.16.15-.33.36-.48.62-.34.53-.79,1.46-1.33,2.78-.67,1.69-2.13,5.26-4.35,10.73-2.41,5.9-4.08,9.89-5.02,11.98-.89,2.09-1.43,3.1-1.63,3.01-.22,0-.41-.19-.59-.56-.18-.34-.45-.97-.82-1.89l-9.55-24.26c-.41-1.08-.79-1.82-1.16-2.22-.42-.4-.97-.68-1.64-.83-.67-.1-1.17-.15-1.48-.15-.2,0-.3-.09-.3-.28.03-.17.36-.26,1.01-.26,2.23.03,3.76.07,4.57.12.23,0,.71-.03,1.43-.08.71-.03,1.44-.04,2.19-.04.7,0,1.05.09,1.05.26,0,.18-.13.28-.4.28-.54,0-1.05.07-1.53.19-.38.2-.56.47-.53.79,0,.24.11.64.34,1.22.21.55.47,1.24.77,2.07l7.52,20.27h-.02Z"/>
  <path class="cls-2" d="M228.59,31.69c-.04,3.33.02,5.75.17,7.28.05.49.16.89.34,1.19.17.34.51.55,1.02.64.6.09,1.12.13,1.55.13.18.03.27.1.27.2,0,.17-.18.25-.55.25-2.26-.04-3.68-.07-4.22-.09-.7.02-1.82.05-3.38.09-.37,0-.56-.08-.56-.25,0-.1.09-.17.27-.2.34,0,.7-.05,1.04-.13.34-.09.59-.3.72-.64.14-.31.22-.7.27-1.19.12-1.52.19-3.96.19-7.28v-5.89c0-4.49-.03-6.9-.07-7.23-.04-1.12-.43-1.75-1.16-1.88-.42-.09-.78-.13-1.08-.13-.18,0-.27-.07-.27-.2,0-.17.18-.25.55-.25,1.65.02,2.81.06,3.48.1.16,0,.61-.02,1.36-.07.76-.02,1.43-.03,2-.03.37,0,.55.08.55.25-.02.14-.11.2-.27.2-.21,0-.51.04-.88.1-.44.07-.75.25-.93.54-.2.31-.32.76-.34,1.37-.02.43-.04,1.11-.04,2.03-.02.94-.04,2.67-.04,5.2v5.89h.01Z"/>
  <path class="cls-2" d="M240.24,41.86c-1.73,0-3.37-.3-4.89-.9-.24-.12-.38-.26-.43-.41-.07-.15-.11-.44-.11-.86.03-1.77.08-2.94.18-3.54.03-.36.12-.54.28-.54.18,0,.27.12.27.36-.02.34.01.75.11,1.24.31,1.23.97,2.1,1.99,2.61,1.02.56,2.15.82,3.39.8,1.74-.02,3.05-.5,3.93-1.44.85-.9,1.28-1.89,1.28-3s-.3-2.13-.9-3.02c-.63-.86-1.72-1.86-3.26-3l-1.62-1.24c-1.86-1.45-3.11-2.74-3.75-3.87-.65-1.14-.96-2.27-.93-3.38.09-3.9,2.58-5.9,7.48-6.03.72,0,1.35.02,1.9.07.53.08,1.01.17,1.45.28.62.11,1.05.16,1.27.16.23,0,.35.08.35.23-.04.14-.09,1.32-.13,3.52,0,.52-.08.78-.24.78-.2,0-.3-.15-.3-.44,0-.23-.04-.52-.14-.87-.1-.36-.2-.62-.32-.8-.05-.12-.15-.28-.3-.47-.17-.18-.43-.37-.8-.57-.3-.21-.75-.39-1.33-.54-.58-.13-1.28-.19-2.11-.19-1.26,0-2.31.33-3.15,1-.85.68-1.28,1.64-1.31,2.89-.03.88.29,1.72.93,2.53.66.78,1.82,1.81,3.47,3.08l1.01.74c2.09,1.52,3.51,2.87,4.26,4.07.7,1.21,1.03,2.47,1.01,3.79,0,.71-.19,1.59-.58,2.64-.21.49-.51.99-.89,1.5-.41.49-.94.96-1.58,1.4-1.62.94-3.46,1.41-5.49,1.41"/>
  <path class="cls-2" d="M163.06,31.7c-.03,3.32.03,5.75.17,7.27.05.49.16.89.33,1.19.17.34.51.55,1.02.64.59.09,1.12.13,1.55.13.18.03.27.1.27.2,0,.17-.18.26-.54.26-2.28-.04-3.69-.07-4.24-.09-.7.02-1.82.05-3.38.09-.37,0-.56-.09-.56-.25,0-.11.1-.17.29-.2.33,0,.67-.04,1.02-.13.35-.09.59-.3.72-.63.13-.31.22-.7.27-1.19.12-1.52.19-3.95.19-7.28v-14.16l-5.11.07c-1.05,0-1.83.08-2.36.23-.53.16-.92.44-1.16.85-.33.51-.52.85-.59,1.03-.09.25-.21.36-.35.34-.11,0-.17-.1-.17-.31,0-.11.04-.33.14-.67.08-.31.16-.67.25-1.1.2-.91.33-1.49.37-1.71.09-.36.21-.57.36-.64.16.05.66.18,1.52.41,1.19.11,2.1.16,2.73.16h12.95c2.11-.07,3.25-.17,3.41-.33.12.02.19.15.19.39-.04,1.55-.08,2.77-.12,3.67,0,.29-.08.44-.24.44-.16.02-.25-.17-.27-.57l-.04-.36c-.02-.51-.32-.95-.91-1.31-.62-.32-1.74-.5-3.34-.54l-4.36-.07v14.16Z"/>
  <path class="cls-2" d="M185.18,30.31c.17,0,.22-.08.15-.23l-3.29-9.04c-.16-.51-.33-.51-.52,0l-3.04,9.04c-.05.15-.01.23.1.23h6.59ZM181.59,16.92c.37-.9.62-1.33.76-1.29.17-.04.43.36.78,1.21,1.88,4.82,4.56,11.54,8.05,20.18.62,1.43,1.19,2.38,1.72,2.88.48.49.9.77,1.25.83.55.16,1.01.23,1.38.2.22,0,.34.07.34.2-.02.17-.25.26-.69.26-.88,0-2.68-.02-5.42-.07-.7,0-1.05-.08-1.05-.22s.09-.21.25-.24c.11-.04.2-.14.27-.3.05-.13.02-.33-.07-.6l-3.22-8.25c-.05-.13-.15-.19-.3-.19h-7.42c-.17,0-.28.09-.35.26l-2.08,5.94c-.31.88-.47,1.62-.47,2.24,0,.34.16.57.47.7.26.17.54.26.84.26h.33c.22,0,.34.07.34.2-.02.17-.19.25-.5.25-1.14-.04-2.04-.07-2.7-.09-.66.02-1.96.05-3.89.09-.44,0-.66-.09-.66-.25.02-.14.12-.2.3-.2.33,0,.67-.02,1.02-.07.78-.11,1.38-.45,1.82-1.03.44-.56.8-1.26,1.08-2.11l7.83-20.8h0Z"/>
  <path class="cls-2" d="M265.17,31.7c-.03,3.32.04,5.75.17,7.27.05.49.16.89.34,1.19.17.34.51.55,1.02.64.59.09,1.12.13,1.55.13.18.03.27.1.27.2,0,.17-.18.26-.54.26-2.28-.04-3.69-.07-4.24-.09-.7.02-1.82.05-3.38.09-.37,0-.56-.09-.56-.25,0-.11.1-.17.28-.2.34,0,.67-.04,1.03-.13.34-.09.59-.3.72-.63.13-.31.22-.7.27-1.19.12-1.52.19-3.95.19-7.28v-14.16l-5.11.07c-1.05,0-1.83.08-2.36.23-.53.16-.92.44-1.16.85-.32.51-.52.85-.59,1.03-.09.25-.21.36-.35.34-.11,0-.17-.1-.17-.31,0-.11.05-.33.14-.67.08-.31.16-.67.25-1.1.2-.91.32-1.49.37-1.71.09-.36.21-.57.36-.64.16.05.66.18,1.52.41,1.19.11,2.1.16,2.73.16h12.95c2.11-.07,3.25-.17,3.41-.33.12.02.19.15.19.39-.03,1.55-.08,2.77-.12,3.67,0,.29-.08.44-.24.44-.16.02-.25-.17-.27-.57l-.04-.36c-.02-.51-.33-.95-.91-1.31-.62-.32-1.74-.5-3.35-.54l-4.36-.07v14.16Z"/>
  <path class="cls-2" d="M288.18,30.31c.17,0,.22-.08.15-.23l-3.29-9.04c-.16-.51-.33-.51-.52,0l-3.04,9.04c-.04.15,0,.23.1.23h6.59ZM284.59,16.92c.37-.9.62-1.33.76-1.29.17-.04.43.36.78,1.21,1.88,4.82,4.56,11.54,8.05,20.18.62,1.43,1.19,2.38,1.72,2.88.48.49.9.77,1.25.83.55.16,1.02.23,1.38.2.22,0,.34.07.34.2-.02.17-.25.26-.69.26-.88,0-2.68-.02-5.42-.07-.7,0-1.04-.08-1.04-.22s.09-.21.25-.24c.11-.04.2-.14.27-.3.05-.13.02-.33-.07-.6l-3.22-8.25c-.05-.13-.15-.19-.3-.19h-7.42c-.17,0-.28.09-.35.26l-2.08,5.94c-.32.88-.47,1.62-.47,2.24,0,.34.16.57.47.7.26.17.54.26.84.26h.33c.22,0,.34.07.34.2-.02.17-.19.25-.5.25-1.14-.04-2.04-.07-2.7-.09-.66.02-1.97.05-3.89.09-.44,0-.66-.09-.66-.25.02-.14.12-.2.3-.2.33,0,.67-.02,1.02-.07.78-.11,1.38-.45,1.82-1.03.44-.56.8-1.26,1.08-2.11l7.83-20.8h0Z"/>
  <path class="cls-2" d="M151.86,36.73c-.19,0-.29.15-.32.44-.11.72-.41,1.39-.9,2.01-.42.44-.98.73-1.69.83-.72.11-1.56.16-2.5.16-1.31,0-2.26-.07-2.87-.2-.6-.13-1.02-.32-1.27-.57-.3-.29-.5-1.03-.59-2.24-.11-1.18-.17-2.98-.17-5.43v-5.95c0-2.53.01-4.26.04-5.2,0-.92,0-1.59.03-2.03.02-.61.14-1.07.34-1.37.21-.29.55-.48,1-.54.46-.07.84-.1,1.15-.1.16,0,.25-.07.27-.2,0-.17-.18-.25-.54-.25-.6,0-1.32.01-2.14.03-.87.04-1.4.07-1.58.07-.6-.04-1.91-.08-3.9-.1-.37,0-.56.08-.56.25,0,.14.1.2.29.2.42,0,.8.04,1.16.1.58.09.98.29,1.18.6.18.29.28.72.3,1.31.05.33.07,2.74.07,7.23v5.89c0,3.33-.06,5.75-.19,7.28-.04.49-.13.89-.27,1.19-.13.34-.38.55-.72.64-.18.05-.36.08-.54.1-1.04.07-1.67.03-2.02-.02-.2-.04-.39-.08-.61-.14-.4-.08-.86-.4-1.41-.99-.6-.58-1.24-1.71-1.94-3.4-3.93-10.22-6.97-18.18-9.09-23.87-.4-1.01-.69-1.48-.87-1.43-.15-.05-.44.46-.86,1.52l-8.84,24.6c-.31,1.01-.73,1.84-1.22,2.5-.5.69-1.18,1.09-2.06,1.22-.4.05-.78.08-1.14.08-.2,0-.32.08-.34.24,0,.2.25.3.74.3,2.18-.05,3.65-.09,4.4-.11.75.03,1.77.06,3.05.11.35,0,.54-.1.57-.3,0-.16-.13-.24-.38-.24h-.38c-.35,0-.66-.1-.95-.31-.36-.15-.53-.43-.53-.83,0-.74.18-1.62.53-2.65l2.34-7.02c.08-.21.21-.31.4-.31h8.38c.18,0,.29.08.35.24l3.64,9.76c.1.32.13.56.08.72-.08.18-.18.3-.3.35-.19.03-.29.12-.29.28,0,.17.4.26,1.18.26,2.86.05,4.81.07,5.87.08h.24c.06,0,.1,0,.15-.01.79-.02,1.31-.09,2.03-.13.33-.01.67-.03,1.04-.05.76-.03,1.23-.04,1.42-.04,1.61.07,4.7.13,9.25.19.9,0,1.48-.06,1.74-.16.22-.13.37-.37.44-.74.14-.55.27-1.19.39-1.91.09-.73.13-1.21.13-1.44,0-.34-.07-.51-.2-.51h-.01ZM124.2,28.41h-7.45c-.13,0-.17-.09-.11-.27l3.43-10.7c.22-.6.41-.6.59,0l3.72,10.7c.08.18.02.27-.17.27h0Z"/>
  <path class="cls-2" d="M336.77,41.74h16.97v-.87c0-1.52.51-2.39,1.72-2.87v-.09h-4.76c-.25,0-.34-.04-.51-.22l-2.49-2.61-2.57,2.65c-.13.13-.21.17-.47.17h-3.81c-.21,0-.21-.13-.09-.26l4.88-4.83-4.97-4.88c-.13-.13-.09-.26.13-.26h3.86c.21,0,.3.04.43.17l2.7,2.74,2.53-2.74c.13-.13.21-.17.39-.17h10.07c2.31,0,4.37.78,5.14,3.14h.09v-15.46c0-2.7-1.37-4.09-4.03-4.09h-25.2c-2.66,0-4.03,1.39-4.03,4.09v22.29c0,2.7,1.37,4.09,4.03,4.09M349.88,32.81l3.86,3.79v-7.57l-3.86,3.79ZM356.95,41.74h5.02c2.65,0,4.03-1.39,4.03-4.09v-2.83h-.09c-.77,2.35-2.74,3.09-5.1,3.09h-3.73c-.09,0-.13.05-.13.13v3.7h0ZM356.95,34.81h3.77c1.42,0,2.4-.65,2.4-2s-.98-2-2.4-2h-3.77v4.01h0Z"/>
  <path class="cls-2" d="M316.15,11.26h-.69v30.47h.69V11.26Z"/>
</svg>