<svg width="356" height="33" viewBox="0 0 356 33" fill="none" xmlns="http://www.w3.org/2000/svg">
<path d="M73.1512 12.3149C73.334 12.3047 73.4253 12.2893 73.4253 12.2893C57.3545 9.32186 43.4461 0 43.4461 0C48.0196 13.7935 70.3797 12.5298 73.1512 12.3149ZM78.5826 14.8219C78.5826 14.8219 76.3136 13.3228 70.0142 13.6093C59.2631 13.7679 35.101 11.6958 38.3345 14.9805C40.1517 16.8172 48.5323 16.6177 56.6946 15.9219C49.6744 17.5284 40.5426 20.2451 28.7356 24.7167C28.7356 24.7167 11.6344 30.4214 0 32.8312C0 32.8312 17.5429 35.0312 47.1618 23.6781C73.2781 13.6656 78.5776 14.827 78.5776 14.827M69.9787 17.6921C69.9787 17.6921 47.0958 24.5786 43.4004 27.0242C43.4004 27.0242 73.4761 16.8223 82.8922 21.4474C82.8922 21.4474 84.3947 13.9777 69.9787 17.687" fill="#886B25"/>
<path d="M198.378 26.5851C201.855 18.0358 204.631 10.7093 206.708 4.6107C206.926 3.97628 207.043 3.47488 207.068 3.1014C207.068 2.72791 206.895 2.42605 206.555 2.1907C206.038 2.08837 205.54 2.03721 205.073 2.03721C204.794 2.06279 204.657 1.98093 204.657 1.79674C204.631 1.59721 204.916 1.5 205.515 1.5C207.327 1.52558 208.596 1.56651 209.322 1.61767C209.51 1.61767 209.916 1.59209 210.54 1.54093C211.159 1.51535 211.768 1.5 212.367 1.5C212.809 1.5 213.032 1.58698 213.032 1.76093C213.032 1.94512 212.875 2.03721 212.555 2.03721C212.428 2.03721 212.18 2.04744 211.814 2.07814C211.459 2.1293 211.083 2.27256 210.692 2.50279C210.591 2.55395 210.479 2.66651 210.347 2.83023C210.185 2.98372 210.022 3.18837 209.87 3.4493C209.525 3.97628 209.083 4.90744 208.54 6.23256C207.865 7.92093 206.413 11.4972 204.185 16.9614C201.774 22.8656 200.104 26.8563 199.165 28.9437C198.276 31.0312 197.733 32.0391 197.53 31.9572C197.312 31.9572 197.119 31.7679 196.941 31.3944C196.764 31.0567 196.489 30.4274 196.124 29.5014L186.576 5.24C186.17 4.16046 185.784 3.4186 185.413 3.01953C184.992 2.62047 184.449 2.34419 183.779 2.1907C183.104 2.08837 182.611 2.03721 182.297 2.03721C182.094 2.03721 181.992 1.94512 181.992 1.76093C182.018 1.58698 182.353 1.5 183.002 1.5C185.236 1.52558 186.759 1.56651 187.571 1.61767C187.799 1.61767 188.276 1.59209 188.997 1.54093C189.708 1.51535 190.439 1.5 191.185 1.5C191.88 1.5 192.231 1.58698 192.231 1.76093C192.231 1.94512 192.099 2.03721 191.835 2.03721C191.297 2.03721 190.784 2.10372 190.302 2.23163C189.921 2.43628 189.743 2.70233 189.774 3.02465C189.774 3.26 189.885 3.66419 190.109 4.24233C190.317 4.79488 190.576 5.48558 190.875 6.3093L198.398 26.58L198.378 26.5851Z" fill="#001845"/>
<path d="M218.585 21.6858C218.55 25.0113 218.606 27.4364 218.753 28.9611C218.798 29.4523 218.91 29.8513 219.088 30.1532C219.255 30.4909 219.595 30.7058 220.103 30.7927C220.702 30.8797 221.22 30.9206 221.656 30.9206C221.839 30.9513 221.925 31.023 221.925 31.1253C221.925 31.2941 221.743 31.376 221.372 31.376C219.108 31.3351 217.697 31.3044 217.149 31.2839C216.453 31.3044 215.326 31.3351 213.768 31.376C213.398 31.376 213.21 31.2941 213.21 31.1253C213.21 31.023 213.301 30.9513 213.479 30.9206C213.824 30.9206 214.174 30.8746 214.519 30.7927C214.865 30.7058 215.108 30.4909 215.24 30.1532C215.377 29.8462 215.464 29.4523 215.509 28.9611C215.631 27.4364 215.697 25.0062 215.697 21.6858V15.7969C215.697 11.3048 215.672 8.89505 215.626 8.56761C215.58 7.44714 215.194 6.81784 214.464 6.68482C214.047 6.59784 213.687 6.55691 213.382 6.55691C213.2 6.55691 213.113 6.4904 213.113 6.35226C213.113 6.18342 213.296 6.10156 213.667 6.10156C215.316 6.12203 216.479 6.15784 217.149 6.19877C217.306 6.19877 217.758 6.17831 218.509 6.13226C219.271 6.11179 219.941 6.10156 220.509 6.10156C220.88 6.10156 221.062 6.18342 221.062 6.35226C221.042 6.4904 220.951 6.55691 220.793 6.55691C220.58 6.55691 220.286 6.59273 219.915 6.65412C219.474 6.72063 219.164 6.8997 218.986 7.19133C218.783 7.49831 218.672 7.95366 218.646 8.56249C218.626 8.99738 218.611 9.67273 218.611 10.5937C218.59 11.5299 218.575 13.2644 218.575 15.7918V21.6806L218.585 21.6858Z" fill="#001845"/>
<path d="M230.24 31.8616C228.509 31.8616 226.874 31.5597 225.346 30.9662C225.108 30.8434 224.966 30.7104 224.92 30.5569C224.849 30.4034 224.813 30.1169 224.813 29.6923C224.839 27.9271 224.895 26.7504 224.991 26.1518C225.017 25.7937 225.108 25.6146 225.275 25.6146C225.453 25.6146 225.544 25.7323 225.544 25.9727C225.519 26.3104 225.555 26.7248 225.651 27.216C225.961 28.4439 226.621 29.3137 227.641 29.8253C228.661 30.383 229.793 30.649 231.037 30.6234C232.778 30.603 234.087 30.122 234.966 29.1857C235.818 28.2904 236.245 27.2927 236.245 26.1825C236.245 25.0723 235.945 24.0541 235.346 23.1639C234.712 22.3043 233.626 21.3016 232.087 20.1606L230.468 18.9225C228.61 17.4746 227.362 16.1853 226.717 15.0495C226.072 13.9085 225.758 12.7778 225.783 11.6676C225.874 7.769 228.367 5.76342 233.26 5.64062C233.976 5.64062 234.61 5.66109 235.164 5.70714C235.691 5.78388 236.174 5.87597 236.61 5.98342C237.235 6.09086 237.656 6.14714 237.879 6.14714C238.113 6.14714 238.235 6.22388 238.235 6.37225C238.189 6.51551 238.143 7.68714 238.103 9.89737C238.103 10.4192 238.021 10.6802 237.859 10.6802C237.661 10.6802 237.559 10.5318 237.559 10.2402C237.559 10.0099 237.514 9.72342 237.417 9.37551C237.321 9.01737 237.214 8.75132 237.098 8.57737C237.052 8.4597 236.95 8.30109 236.798 8.10667C236.631 7.92249 236.367 7.73318 236.001 7.53876C235.697 7.32388 235.255 7.14481 234.676 7.00156C234.098 6.87365 233.397 6.80714 232.57 6.80714C231.306 6.80714 230.26 7.13969 229.423 7.80481C228.57 8.48016 228.138 9.44202 228.113 10.6955C228.088 11.5755 228.402 12.4197 229.047 13.2281C229.707 14.0109 230.864 15.0392 232.519 16.3132L233.524 17.0499C235.615 18.5643 237.037 19.9202 237.788 21.1174C238.483 22.3248 238.818 23.5885 238.793 24.9085C238.793 25.6146 238.6 26.4997 238.214 27.5537C238.001 28.0448 237.702 28.5462 237.321 29.0578C236.91 29.549 236.382 30.0146 235.737 30.4597C234.113 31.396 232.28 31.8667 230.245 31.8667" fill="#001845"/>
<path d="M153.058 21.703C153.033 25.0235 153.094 27.4486 153.226 28.9733C153.271 29.4644 153.383 29.8584 153.561 30.1654C153.728 30.503 154.068 30.7128 154.576 30.7998C155.17 30.8868 155.693 30.9277 156.129 30.9277C156.312 30.9584 156.398 31.03 156.398 31.1323C156.398 31.3012 156.221 31.3882 155.86 31.3882C153.581 31.3472 152.17 31.3165 151.617 31.2961C150.921 31.3165 149.794 31.3472 148.236 31.3882C147.865 31.3882 147.678 31.3012 147.678 31.1375C147.678 31.03 147.774 30.9635 147.962 30.9328C148.297 30.9328 148.637 30.8919 148.987 30.8049C149.332 30.7179 149.576 30.503 149.708 30.1705C149.84 29.8635 149.931 29.4696 149.977 28.9784C150.099 27.4537 150.165 25.0286 150.165 21.703V7.5463L145.053 7.61281C144.008 7.61281 143.221 7.68956 142.693 7.84304C142.165 8.00677 141.774 8.28816 141.53 8.69235C141.206 9.20397 141.008 9.54677 140.942 9.72072C140.85 9.97142 140.733 10.084 140.591 10.0635C140.48 10.0635 140.424 9.96118 140.424 9.75142C140.424 9.64397 140.47 9.41886 140.561 9.08118C140.637 8.77421 140.723 8.41095 140.815 7.9863C141.018 7.07049 141.14 6.49746 141.185 6.27235C141.277 5.91421 141.393 5.69932 141.541 5.63281C141.698 5.67886 142.206 5.81188 143.058 6.04211C144.251 6.14956 145.16 6.20584 145.789 6.20584H158.743C160.855 6.13932 161.992 6.03188 162.149 5.87839C162.271 5.89886 162.337 6.03188 162.337 6.27235C162.302 7.81746 162.261 9.04537 162.22 9.94584C162.22 10.2375 162.144 10.3858 161.982 10.3858C161.825 10.4063 161.733 10.217 161.713 9.81281L161.677 9.45467C161.657 8.94304 161.352 8.50816 160.764 8.14491C160.144 7.8277 159.028 7.64863 157.418 7.6077L153.058 7.54118V21.703Z" fill="#001845"/>
<path d="M175.185 20.312C175.358 20.312 175.409 20.2353 175.338 20.0818L172.048 11.0362C171.891 10.5246 171.718 10.5246 171.525 11.0362L168.49 20.0818C168.444 20.2353 168.48 20.312 168.591 20.312H175.185ZM171.591 6.91761C171.962 6.01715 172.216 5.58226 172.353 5.62831C172.52 5.58738 172.779 5.98645 173.129 6.83575C175.008 11.6502 177.688 18.3781 181.175 27.0195C181.794 28.4469 182.368 29.4037 182.896 29.8948C183.378 30.386 183.794 30.6623 184.145 30.7288C184.698 30.8925 185.16 30.959 185.525 30.9232C185.749 30.9232 185.865 30.9897 185.865 31.1278C185.84 31.2967 185.612 31.3837 185.175 31.3837C184.297 31.3837 182.495 31.3632 179.759 31.3171C179.063 31.3171 178.713 31.2404 178.713 31.0971C178.713 30.959 178.799 30.8823 178.967 30.8618C179.079 30.8209 179.17 30.7185 179.236 30.5651C179.282 30.4371 179.256 30.2325 179.17 29.9613L175.947 21.7139C175.901 21.586 175.799 21.5195 175.642 21.5195H168.221C168.053 21.5195 167.937 21.6064 167.866 21.7804L165.789 27.7204C165.475 28.5953 165.317 29.3423 165.317 29.9613C165.317 30.299 165.475 30.5344 165.789 30.6623C166.048 30.8362 166.328 30.9232 166.632 30.9232H166.967C167.19 30.9232 167.302 30.9897 167.302 31.1278C167.282 31.2967 167.114 31.3785 166.8 31.3785C165.663 31.3376 164.764 31.3069 164.099 31.2864C163.434 31.3069 162.135 31.3376 160.206 31.3785C159.769 31.3785 159.546 31.2916 159.546 31.1278C159.566 30.9897 159.668 30.9232 159.85 30.9232C160.175 30.9232 160.515 30.9027 160.866 30.8567C161.642 30.7492 162.246 30.4064 162.688 29.8283C163.125 29.2706 163.485 28.5697 163.769 27.7153L171.596 6.91249L171.591 6.91761Z" fill="#001845"/>
<path d="M255.173 21.703C255.148 25.0235 255.209 27.4486 255.341 28.9733C255.387 29.4644 255.498 29.8584 255.676 30.1654C255.843 30.503 256.184 30.7128 256.691 30.7998C257.285 30.8868 257.808 30.9277 258.244 30.9277C258.427 30.9584 258.513 31.03 258.513 31.1323C258.513 31.3012 258.336 31.3882 257.975 31.3882C255.696 31.3472 254.285 31.3165 253.732 31.2961C253.036 31.3165 251.909 31.3472 250.351 31.3882C249.981 31.3882 249.793 31.3012 249.793 31.1375C249.793 31.03 249.889 30.9635 250.077 30.9328C250.412 30.9328 250.752 30.8919 251.102 30.8049C251.448 30.7179 251.691 30.503 251.823 30.1705C251.955 29.8635 252.047 29.4696 252.092 28.9784C252.214 27.4537 252.28 25.0286 252.28 21.703V7.5463L247.168 7.61281C246.123 7.61281 245.336 7.68956 244.808 7.84304C244.28 8.00677 243.889 8.28816 243.646 8.69235C243.321 9.20397 243.123 9.54677 243.057 9.72072C242.965 9.97142 242.849 10.084 242.707 10.0635C242.595 10.0635 242.539 9.96118 242.539 9.75142C242.539 9.64397 242.585 9.41886 242.676 9.08118C242.752 8.77421 242.839 8.41095 242.93 7.9863C243.133 7.07049 243.255 6.49746 243.3 6.27235C243.392 5.91421 243.509 5.69932 243.656 5.63281C243.813 5.67886 244.321 5.81188 245.174 6.04211C246.366 6.14956 247.275 6.20584 247.904 6.20584H260.859C262.97 6.13932 264.107 6.03188 264.265 5.87839C264.386 5.89886 264.452 6.03188 264.452 6.27235C264.417 7.81746 264.376 9.04537 264.336 9.94584C264.336 10.2375 264.26 10.3858 264.097 10.3858C263.94 10.4063 263.848 10.217 263.828 9.81281L263.793 9.45467C263.772 8.94304 263.468 8.50816 262.879 8.14491C262.26 7.8277 261.143 7.64863 259.534 7.6077L255.173 7.54118V21.703Z" fill="#001845"/>
<path d="M278.179 20.312C278.351 20.312 278.402 20.2353 278.331 20.0818L275.042 11.0362C274.884 10.5246 274.712 10.5246 274.519 11.0362L271.483 20.0818C271.438 20.2353 271.473 20.312 271.585 20.312H278.179ZM274.585 6.91761C274.956 6.01715 275.209 5.58226 275.341 5.62831C275.509 5.58738 275.768 5.98645 276.118 6.83575C277.996 11.6502 280.676 18.3781 284.164 27.0195C284.783 28.4469 285.356 29.4037 285.884 29.8948C286.367 30.386 286.783 30.6623 287.133 30.7288C287.686 30.8925 288.148 30.959 288.514 30.9232C288.737 30.9232 288.849 30.9897 288.849 31.1278C288.828 31.2967 288.595 31.3837 288.158 31.3837C287.28 31.3837 285.478 31.3632 282.742 31.3171C282.047 31.3171 281.697 31.2404 281.697 31.0971C281.697 30.959 281.783 30.8823 281.95 30.8618C282.062 30.8209 282.153 30.7185 282.219 30.5651C282.265 30.4371 282.24 30.2325 282.153 29.9613L278.93 21.7139C278.884 21.586 278.783 21.5195 278.626 21.5195H271.204C271.037 21.5195 270.92 21.6064 270.849 21.7804L268.773 27.7204C268.458 28.5953 268.301 29.3423 268.301 29.9613C268.301 30.299 268.458 30.5344 268.773 30.6623C269.032 30.8362 269.311 30.9232 269.616 30.9232H269.951C270.174 30.9232 270.286 30.9897 270.286 31.1278C270.265 31.2967 270.098 31.3785 269.783 31.3785C268.646 31.3376 267.747 31.3069 267.083 31.2864C266.418 31.3069 265.118 31.3376 263.189 31.3785C262.753 31.3785 262.529 31.2916 262.529 31.1278C262.55 30.9897 262.651 30.9232 262.834 30.9232C263.159 30.9232 263.499 30.9027 263.849 30.8567C264.626 30.7492 265.23 30.4064 265.671 29.8283C266.108 29.2706 266.468 28.5697 266.753 27.7153L274.58 6.91249L274.585 6.91761Z" fill="#001845"/>
<path d="M141.856 26.7289C141.668 26.7289 141.561 26.8773 141.536 27.1689C141.424 27.8903 141.125 28.5606 140.637 29.1796C140.221 29.6247 139.658 29.9061 138.947 30.0136C138.226 30.121 137.389 30.1773 136.445 30.1773C135.135 30.1773 134.181 30.1108 133.572 29.9829C132.973 29.855 132.551 29.6606 132.303 29.4099C131.998 29.1233 131.8 28.3815 131.709 27.1689C131.597 25.9922 131.541 24.1861 131.541 21.7406V15.7903C131.541 13.2629 131.551 11.5285 131.577 10.5922C131.577 9.67637 131.587 9.00102 131.612 8.56614C131.632 7.9573 131.749 7.50195 131.952 7.19498C132.165 6.90335 132.5 6.71916 132.952 6.65777C133.414 6.59125 133.795 6.56056 134.105 6.56056C134.262 6.56056 134.353 6.49404 134.374 6.35591C134.374 6.18707 134.196 6.10521 133.835 6.10521C133.231 6.10521 132.516 6.11544 131.698 6.13591C130.825 6.17684 130.297 6.20242 130.115 6.20242C129.511 6.16149 128.206 6.12567 126.211 6.10521C125.841 6.10521 125.653 6.18707 125.653 6.35591C125.653 6.49404 125.749 6.56056 125.942 6.56056C126.358 6.56056 126.744 6.59637 127.105 6.65777C127.688 6.74474 128.084 6.94428 128.287 7.26149C128.47 7.548 128.572 7.98288 128.592 8.57125C128.638 8.8987 128.663 11.3085 128.663 15.8006V21.6894C128.663 25.015 128.602 27.4401 128.475 28.9647C128.429 29.4559 128.343 29.855 128.206 30.1568C128.074 30.4945 127.83 30.7094 127.485 30.7964C127.308 30.8424 127.125 30.8731 126.947 30.8936C125.912 30.9652 125.277 30.9192 124.932 30.8731C124.734 30.8322 124.541 30.7964 124.318 30.7299C123.922 30.6531 123.455 30.3257 122.907 29.7424C122.308 29.1643 121.663 28.0285 120.963 26.3401C117.029 16.1229 113.998 8.16195 111.876 2.46753C111.48 1.45963 111.191 0.983812 111.003 1.03497C110.851 0.983812 110.567 1.49032 110.145 2.55963L101.308 27.1638C100.993 28.1717 100.582 29.0006 100.09 29.6606C99.5923 30.3461 98.9071 30.7503 98.034 30.8833C97.638 30.9345 97.2573 30.9601 96.8919 30.9601C96.6888 30.9601 96.5771 31.042 96.5518 31.2006C96.5518 31.4001 96.8005 31.4973 97.2929 31.4973C99.4756 31.4461 100.943 31.4103 101.694 31.3847C102.445 31.4103 103.46 31.4461 104.739 31.4973C105.095 31.4973 105.283 31.4001 105.313 31.2006C105.313 31.042 105.186 30.9601 104.932 30.9601H104.552C104.206 30.9601 103.892 30.8578 103.597 30.6531C103.242 30.4996 103.064 30.2233 103.064 29.8192C103.064 29.0824 103.242 28.2024 103.597 27.1689L105.937 20.1443C106.014 19.9396 106.146 19.8322 106.338 19.8322H114.719C114.897 19.8322 115.008 19.9089 115.064 20.0675L118.704 29.8243C118.805 30.1466 118.831 30.3871 118.78 30.5406C118.704 30.7247 118.602 30.8373 118.475 30.8885C118.287 30.914 118.191 31.0061 118.191 31.1699C118.191 31.3438 118.587 31.4308 119.374 31.4308C122.237 31.4768 124.186 31.5024 125.247 31.5075C125.262 31.5075 125.272 31.5075 125.292 31.5075C125.308 31.5075 125.313 31.5075 125.328 31.5075C125.379 31.5075 125.445 31.5075 125.49 31.5075C125.546 31.5075 125.592 31.5024 125.643 31.4973C126.43 31.4768 126.952 31.4052 127.673 31.3694C127.998 31.3592 128.343 31.3438 128.709 31.3233C129.465 31.2978 129.937 31.2875 130.125 31.2875C131.734 31.354 134.82 31.4154 139.379 31.482C140.282 31.482 140.861 31.4257 141.12 31.3182C141.343 31.1903 141.49 30.9447 141.556 30.5815C141.698 30.0289 141.83 29.3894 141.942 28.668C142.033 27.9415 142.074 27.4606 142.074 27.2303C142.074 26.8927 142.008 26.7238 141.871 26.7238L141.856 26.7289ZM114.201 18.4099H106.755C106.628 18.4099 106.587 18.3178 106.643 18.1387L110.074 7.44056C110.293 6.83684 110.486 6.83684 110.663 7.44056L114.379 18.1387C114.455 18.3178 114.399 18.4099 114.206 18.4099H114.201Z" fill="#001845"/>
<path d="M326.772 31.7382H343.741V30.8684C343.741 29.3438 344.254 28.474 345.457 27.9982V27.9112H340.701C340.447 27.9112 340.36 27.8703 340.188 27.6912L337.701 25.0819L335.127 27.7373C335 27.8652 334.914 27.9112 334.655 27.9112H330.843C330.63 27.9112 330.63 27.7833 330.757 27.6503L335.64 22.8205L330.67 17.9447C330.543 17.8168 330.584 17.6838 330.797 17.6838H334.655C334.868 17.6838 334.954 17.7247 335.081 17.8577L337.782 20.6L340.31 17.8577C340.437 17.7247 340.523 17.6838 340.695 17.6838H350.766C353.081 17.6838 355.137 18.4666 355.908 20.82H355.995V5.35865C355.995 2.65725 354.624 1.26562 351.964 1.26562H326.767C324.112 1.26562 322.736 2.65725 322.736 5.35865V27.6452C322.736 30.3466 324.107 31.7382 326.767 31.7382M339.878 22.8154L343.736 26.6014V19.0293L339.878 22.8154ZM346.949 31.7382H351.964C354.619 31.7382 355.995 30.3466 355.995 27.6452V24.8159H355.908C355.137 27.1693 353.167 27.9061 350.812 27.9061H347.081C346.995 27.9061 346.954 27.9521 346.954 28.034V31.7331L346.949 31.7382ZM346.949 24.8159H350.721C352.137 24.8159 353.122 24.161 353.122 22.8154C353.122 21.4698 352.137 20.8149 350.721 20.8149H346.949V24.821V24.8159Z" fill="#001845"/>
<path d="M306.147 1.26562H305.457V31.7382H306.147V1.26562Z" fill="#001845"/>
</svg>
